<svg width="17" height="16" viewBox="0 0 17 16" fill="none" xmlns="http://www.w3.org/2000/svg">
<g clip-path="url(#clip0_210_1428)">
<path d="M8.62211 5.33438H8.40974C7.74168 5.3641 7.10894 5.64336 6.63609 6.11716C6.16324 6.59096 5.88455 7.22497 5.85488 7.89437C5.84087 8.24446 5.89586 8.59388 6.0167 8.92267C6.13754 9.25146 6.32186 9.55315 6.55914 9.81052C6.79641 10.0679 7.08198 10.2759 7.39951 10.4226C7.71705 10.5693 8.06033 10.6519 8.40974 10.6656H8.51832C9.2053 10.6649 9.86542 10.3981 10.3606 9.92097C10.8558 9.44386 11.1478 8.79338 11.1754 8.10557C11.2026 7.39907 10.9491 6.71058 10.4705 6.19109C9.99183 5.6716 9.32712 5.36351 8.62211 5.33438ZM14.1614 2.34319C12.6828 0.853939 10.6762 0.0115318 8.57979 0H8.45205C6.33458 0.00848689 4.30721 0.859477 2.81592 2.36576C1.32463 3.87205 0.491594 5.91024 0.500064 8.03197C0.508534 10.1537 1.35782 12.1851 2.86108 13.6794C4.36435 15.1737 6.39845 16.0084 8.51592 15.9999H8.58059C10.1541 15.9872 11.6888 15.5088 12.9919 14.6249C14.295 13.7409 15.3083 12.4908 15.9046 11.0317C16.5009 9.57248 16.6535 7.96928 16.3434 6.42345C16.0332 4.87762 15.2741 3.45809 14.1614 2.34319ZM8.51592 13.3335C7.10421 13.3397 5.74787 12.7837 4.7453 11.7878C3.74272 10.7919 3.17603 9.43772 3.16989 8.02317C3.16375 6.60861 3.71866 5.24955 4.71255 4.24496C5.70644 3.24037 7.0579 2.67254 8.46962 2.66639H8.56383C9.96415 2.68419 11.301 3.25424 12.2848 4.25299C13.2685 5.25173 13.8198 6.59869 13.8192 8.00194C13.8185 9.40518 13.266 10.7517 12.2814 11.7495C11.2968 12.7474 9.95937 13.3162 8.55904 13.3327L8.51592 13.3335Z" fill="#007BB0"/>
</g>
<defs>
<clipPath id="clip0_210_1428">
<rect width="16" height="16" fill="white" transform="translate(0.5)"/>
</clipPath>
</defs>
</svg>
